PathFileType	3	(X/Y/Z)	D:\VICON_DB\Goncalves\Pilot01\09-03-2026\walking_03.trc
DataRate	CameraRate	NumFrames	NumMarkers	Units	OrigDataRate	OrigDataStartFrame	OrigNumFrames
200.0	200.0	10	34	mm	200.0	941	1504	
Frame#	Time	LASI			RASI			LPSI			RPSI			LTHI			LTHAP			LTHAD			LKNE			LKNM			LTIB			LTIAP			LTIAD			LANK			LMED			LHEE			LTOE			LFMH			LSMH			LVMH			RTHI			RTHAP			RTHAD			RKNE			RKNM			RTIB			RTIAP			RTIAD			RANK			RMED			RHEE			RTOE			RFMH			RSMH			RVMH			
		X1	Y1	Z1	X2	Y2	Z2	X3	Y3	Z3	X4	Y4	Z4	X5	Y5	Z5	X6	Y6	Z6	X7	Y7	Z7	X8	Y8	Z8	X9	Y9	Z9	X10	Y10	Z10	X11	Y11	Z11	X12	Y12	Z12	X13	Y13	Z13	X14	Y14	Z14	X15	Y15	Z15	X16	Y16	Z16	X17	Y17	Z17	X18	Y18	Z18	X19	Y19	Z19	X20	Y20	Z20	X21	Y21	Z21	X22	Y22	Z22	X23	Y23	Z23	X24	Y24	Z24	X25	Y25	Z25	X26	Y26	Z26	X27	Y27	Z27	X28	Y28	Z28	X29	Y29	Z29	X30	Y30	Z30	X31	Y31	Z31	X32	Y32	Z32	X33	Y33	Z33	X34	Y34	Z34	
941	4.7	83.867012	862.30566	-861.3476	344.54129	861.76154	-831.75024	152.70821	910.21204	-654.12512	215.19815	907.72076	-647.27264	65.98613	690.86346	-923.37164	40.728207	745.98596	-880.95691	33.924397	619.18079	-922.41589	64.663376	465.20956	-949.60101				54.366825	274.81561	-992.21643	113.10325	366.93939	-1008.861	89.931931	265.73911	-1035.0188	87.974396	73.220253	-1049.5807				138.42479	52.309155	-1002.9495	122.63246	99.570732	-1120.3552	158.67326	92.592133	-1174.3333				82.293747	67.348862	-1178.0648	360.9187	590.78638	-732.93335	359.41681	708.98053	-798.00726	338.29874	615.08081	-801.91229	338.33542	468.95694	-660.2959				337.71057	288.82703	-566.52521	290.36533	320.83194	-627.54736	283.54984	249.08072	-586.57831	289.57001	93.980003	-431.13593				247.93596	109.19257	-395.28796	268.20679	76.041313	-518.86005	234.94539	48.461338	-560.44641				308.01035	17.034412	-541.8385
942	4.705	83.103889	862.44897	-868.7962	343.81799	861.23364	-839.41437	152.12614	910.25983	-661.60651	214.6519	907.54828	-654.8396	65.807259	691.3963	-931.47607	40.305599	746.47852	-889.04089	33.960663	619.57324	-930.34796	64.821312	465.60687	-956.98962				54.626579	274.34686	-997.4809	113.16303	366.33905	-1015.3328	90.084518	264.81631	-1040.2321	88.171402	72.3312	-1052.1666				138.63275	52.326817	-1005.2918	122.80637	97.312737	-1123.4105	158.76715	89.37133	-1177.3461				82.388443	63.872612	-1180.436	360.27167	590.06342	-740.77802	358.60513	708.29065	-805.68011	337.72855	614.39868	-809.7608	337.87573	468.17908	-668.25214				337.54538	289.41245	-571.90411	290.32791	320.12619	-633.63373	283.63007	249.13542	-591.38641	290.02835	96.889595	-432.99866				248.3882	112.97752	-397.56207	268.70224	76.898865	-520.2998	235.13658	48.509201	-561.01166				307.77338	17.058094	-541.65552
943	4.71	82.28466	862.6748	-876.25482	343.03757	860.7525	-847.14502	151.56133	910.42126	-669.11414	214.12859	907.47614	-662.44885	65.601585	691.95898	-939.51794	39.872246	747.01709	-897.09204	33.956963	620.02136	-938.20624	64.931656	466.07202	-964.35406				54.859505	273.98663	-1002.6758	113.23074	365.81592	-1021.7419	90.238792	263.97098	-1045.3423	88.332146	71.519226	-1054.4978				138.77953	52.454319	-1007.3478	122.97034	95.049034	-1126.2068	158.86526	86.099709	-1180.077				82.477036	60.35762	-1182.5271	359.58914	589.33075	-748.85834	357.72998	707.63599	-813.4917	337.09186	613.7619	-817.81622	337.40393	467.34848	-676.52515				337.36755	290.05405	-577.54724	290.30176	319.41562	-639.99036	283.72159	249.23206	-596.453	290.44608	99.973167	-435.09863				248.80339	116.97365	-400.1394	269.1962	77.79171	-521.88373	235.30928	48.545395	-561.61914				307.49072	17.118219	-541.46075
944	4.715	81.411644	862.98987	-883.71686	342.20123	860.31927	-854.93048	151.01588	910.69159	-676.63965	213.62915	907.49884	-670.0921	65.361496	692.55115	-947.47247	39.425507	747.60376	-905.08813	33.901928	620.52576	-945.97113	64.980331	466.59882	-971.67755				55.050079	273.73889	-1007.8149	113.30002	365.37445	-1028.079	90.388817	263.21222	-1050.3553	88.45533	70.792061	-1056.6119				138.86046	52.683949	-1009.1588	123.12668	92.813278	-1128.7678	158.97575	82.830597	-1182.5457				82.566689	56.863441	-1184.3804	358.87952	588.59058	-757.17102	356.79645	707.0199	-821.43707	336.39713	613.17352	-826.07562	336.92926	466.46555	-685.11597				337.18362	290.75446	-583.46588	290.29407	318.70566	-646.62585	283.8309	249.37337	-601.79156	290.82001	103.23072	-437.46249				249.17673	121.17793	-403.05225	269.6839	78.715904	-523.6239	235.45717	48.568249	-562.27148				307.16119	17.223238	-541.26172
945	4.72	80.488335	863.40076	-891.17712	341.31006	859.93463	-862.75854	150.49274	911.06476	-684.17487	213.15479	907.6095	-677.76086	65.079071	693.17529	-955.31866	38.961296	748.24298	-913.00879	33.785091	621.08734	-953.62701	64.957283	467.17899	-978.94269				55.184193	273.59937	-1012.9043	113.36382	365.01169	-1034.3325	90.528671	262.54019	-1055.2695	88.542038	70.150864	-1058.5365				138.87448	53.002792	-1010.7593	123.27892	90.63353	-1131.1117	159.10757	79.609138	-1184.7662				82.663612	53.441402	-1186.032	358.15265	587.84589	-765.7113	355.81146	706.44543	-829.5097	335.65408	612.63635	-834.53387	336.46188	465.53156	-694.02289				337.00043	291.51547	-589.67053	290.31216	318.00128	-653.54932	283.96484	249.56171	-607.41553	291.14832	106.65991	-440.11746				249.5034	125.5843	-406.33347	270.15979	79.667137	-525.53253	235.57376	48.577061	-562.97235				306.78494	17.383076	-541.06873
946	4.725	79.51944	863.91351	-898.63043	340.36563	859.59906	-870.61639	149.99538	911.53296	-691.71124	212.70683	907.79999	-685.44598	64.74633	693.83551	-963.04071	38.474133	748.93951	-920.83655	33.597363	621.70532	-961.16284	64.856712	467.80118	-986.13104				55.251747	273.55545	-1017.9418	113.41409	364.71808	-1040.4883	90.652229	261.94675	-1060.0773	88.595634	69.592651	-1060.2939				138.82468	53.395222	-1012.1797	123.43127	88.532013	-1133.2534	159.26987	76.471306	-1186.7521				82.770721	50.13332	-1187.5131	357.41977	587.10059	-774.47119	354.78378	705.91589	-837.70154	334.87402	612.15295	-843.18353	336.01218	464.5488	-703.24109				336.82523	292.33768	-596.17181	290.36353	317.3074	-660.76849	284.12997	249.79869	-613.33807	291.4296	110.25552	-443.09125				249.77887	130.18336	-410.01584	270.61746	80.641396	-527.62317	235.653	48.572567	-563.7276				306.3634	17.609425	-540.896
947	4.73	78.510941	864.53247	-906.07239	339.37006	859.31274	-878.49146	149.52731	912.08673	-699.24048	212.28664	908.0603	-693.1377	64.355583	694.53461	-970.62775	37.957386	749.69684	-928.55676	33.331692	622.37622	-968.57153	64.676735	468.45062	-993.22241				55.248421	273.5882	-1022.9177	113.44182	364.47931	-1046.5306	90.753151	261.41779	-1064.7675	88.621315	69.111771	-1061.9033				138.7178	53.844757	-1013.4457	123.58748	86.525772	-1135.2083	159.46967	73.445251	-1188.5186				82.886032	46.972446	-1188.8523	356.69278	586.35876	-783.44031	353.72351	705.43372	-846.00299	334.06964	611.72571	-852.0144	335.59024	463.52036	-712.76221				336.66476	293.22006	-602.97864	290.45502	316.62885	-668.29053	284.33206	250.08482	-619.57135	291.66284	114.00906	-446.41156				249.99905	134.9622	-414.13132	271.04999	81.635773	-529.90979	235.68951	48.557377	-564.54547				305.89954	17.915937	-540.76208
948	4.735	77.469849	865.25836	-913.49829	338.32626	859.07544	-886.37103	149.09189	912.71539	-706.75366	211.89537	908.37994	-700.82574	63.89986	695.27313	-978.07428	37.403503	750.51544	-936.15845	32.983841	623.09235	-975.84863	64.41864	469.11002	-1000.1955				55.175667	273.67432	-1027.8149	113.43782	364.2785	-1052.4437	90.825478	260.93594	-1069.3278	88.625519	68.700729	-1063.3831				138.56349	54.335228	-1014.5806	123.75053	84.627647	-1136.9911	159.70892	70.553345	-1190.0833				83.002823	43.985382	-1190.074	355.98416	585.62469	-792.60498	352.64221	705.00146	-854.40228	333.25479	611.35651	-861.01404	335.20496	462.4502	-722.57397				336.52542	294.15903	-610.09937	290.59241	315.96982	-676.12067	284.57571	250.4193	-626.12634	291.84686	117.90902	-450.10568				250.16069	139.90413	-418.7099	271.44952	82.648949	-532.40778	235.67915	48.53648	-565.43701				305.39734	18.318115	-540.69012
949	4.74	76.403938	866.08801	-920.90332	337.23843	858.88586	-894.24292	148.69177	913.40692	-714.24176	211.53395	908.74786	-708.49896	63.373268	696.04797	-985.37946	36.804539	751.39136	-943.63477	32.552872	623.84222	-982.99182	64.086349	469.76025	-1007.0284				55.039425	273.78906	-1032.6122	113.39382	364.09824	-1058.2124	90.864418	260.48322	-1073.7454	88.615501	68.350983	-1064.7498				138.37334	54.851513	-1015.6042	123.92278	82.847153	-1138.6171	159.9828	67.813751	-1191.4678				83.111252	41.193592	-1191.1985	355.30582	584.90179	-801.9491	351.55206	704.62085	-862.8869	332.44412	611.047	-870.16681	334.86362	461.34375	-732.6604				336.41223	295.14801	-617.54016	290.77957	315.33423	-684.26196	284.86353	250.79993	-633.01251	291.98044	121.94147	-454.19962				250.26103	144.98877	-423.77921	271.80771	83.68161	-535.13324	235.6192	48.517593	-566.41772				304.86203	18.832819	-540.70801
950	4.745	75.321342	867.01385	-928.28192	336.11172	858.74255	-902.0954	148.3286	914.14868	-721.69531	211.20267	909.15271	-716.14532	62.771297	696.85095	-992.54669	36.152977	752.31549	-950.98273	32.041309	624.61041	-989.99988	63.685692	470.3826	-1013.7001				54.848606	273.90915	-1037.2865	113.3035	363.92221	-1063.8226	90.867233	260.04291	-1078.0099	88.598793	68.05394	-1066.0164				138.15996	55.379822	-1016.5331	124.10552	81.191177	-1140.0988	160.28008	65.241226	-1192.6941				83.200211	38.613853	-1192.2418	354.66864	584.19354	-811.4538	350.46579	704.29327	-871.44269	331.65256	610.79846	-879.45538	334.57101	460.20767	-743.00232				336.32874	296.17813	-625.30585	291.01816	314.72519	-692.71545	285.19611	251.2233	-640.23688	292.06259	126.0903	-458.71698				250.29802	150.19237	-429.36325	272.11594	84.736717	-538.10437	235.50903	48.51152	-567.50732				304.29987	19.477804	-540.84747
